<svg xmlns="http://www.w3.org/2000/svg" viewBox="0 0 685.29 151.37"><defs><style>.cls-1{fill:#fff;}.cls-2{fill:red;}</style></defs><title>Asset 5</title><g id="Layer_2" data-name="Layer 2"><g id="Layer_1-2" data-name="Layer 1"><path class="cls-1" d="M39.93,86.1A23.89,23.89,0,0,1,60.41,97.51l12-7.46c-7-12.43-19.31-18.72-32.62-18.72C19.89,71.33,0,85.22,0,110.83s19.89,39.49,39.79,39.49a36.79,36.79,0,0,0,32.62-18.73l-12-7.45a23.88,23.88,0,0,1-20.48,11.4c-12.28,0-24-9.06-24-24.71S27.65,86.1,39.93,86.1Z"/><path class="cls-1" d="M119.38,71.33c-19.75,0-39.79,13.89-39.79,39.5s20,39.49,39.79,39.49,39.79-13.9,39.79-39.49S139.13,71.33,119.38,71.33Zm0,64.21c-12.44,0-23.85-9.06-23.85-24.71S106.94,86.1,119.38,86.1s23.7,9.08,23.7,24.73S131.81,135.54,119.38,135.54Z"/><polygon class="cls-1" points="201.75 130.86 178.64 74.25 162.11 74.25 194.15 150.32 209.21 150.32 241.4 74.25 224.72 74.25 201.75 130.86"/><path class="cls-1" d="M282.51,71.33c-19.31,0-38.17,13.89-38.17,39.5,0,25.3,18.72,39.49,39.34,39.49,12.88,0,23.85-5.27,30.43-13.46L306.5,129c-5.55,5.27-12.87,7.9-21.06,7.9-13,0-23.41-6.73-25.89-19.89h59.68C322.89,85.08,301.82,71.33,282.51,71.33ZM259.4,105c2.34-13.47,12.58-19.9,23.26-19.9S304,91.81,304.89,105Z"/><path class="cls-1" d="M348.21,93.85V74.25H332.12v76.07h16.09V114.77c0-15.94,9.8-26.47,24.29-26.47a23.57,23.57,0,0,1,4.67.44V73.37a17.4,17.4,0,0,0-4.82-.58C358.45,72.79,350.84,82.45,348.21,93.85Z"/><path class="cls-1" d="M430,72.79c-12.29,0-20.34,5.85-24.43,12.87V74.25H389.48v76.07h16.09V108.19c0-13.31,7.75-20.77,18.72-20.77,11.26,0,18.58,7.46,18.58,20.77v42.13H459.1V105.56C459.1,82.59,445.65,72.79,430,72.79Z"/><path class="cls-1" d="M511.34,71.33c-19.74,0-39.78,13.89-39.78,39.5s20,39.49,39.78,39.49,39.79-13.9,39.79-39.49S531.09,71.33,511.34,71.33Zm0,64.21c-12.43,0-23.84-9.06-23.84-24.71S498.91,86.1,511.34,86.1,535,95.18,535,110.83,523.78,135.54,511.34,135.54Z"/><path class="cls-1" d="M648.16,71.34c-19.3,0-38.17,13.89-38.17,39.49,0,25.3,18.72,39.49,39.34,39.49,12.88,0,23.85-5.27,30.42-13.46l-7.6-7.9c-5.56,5.27-12.87,7.9-21.06,7.9-13,0-23.4-6.72-25.89-19.89h59.68C688.53,85.09,667.47,71.34,648.16,71.34ZM625.06,105c2.34-13.46,12.57-19.89,23.25-19.89s21.36,6.72,22.23,19.89Z"/><path class="cls-1" d="M588.55,134.45c-3-3-3.11-11.41-3.11-12.51v-19H598V92.61H585.44V66.84H570.92v55.1c-.54,9.09.67,18.94,11.15,25.94a26.74,26.74,0,0,0,11.69,3.48c7.75.31,14.26-4.35,15.14-5-3.73-4.78-4.87-4.92-7.95-12.11C599.26,136.24,592.3,138.15,588.55,134.45Z"/><path class="cls-2" d="M633.41,56.06c7.62,0,14.47,3.7,19.47,9.56,1.79,2.11,3.14-.82,1.2-6.21C642.24,26.47,615,4.73,581.7,3.52V0h-7.26l0,3.52C541.18,4.7,513.88,26.45,502,59.41c-1.93,5.39-.58,8.32,1.21,6.21,5-5.86,11.85-9.56,19.47-9.56,9.08,0,17.12,5.19,22.09,13.2,2.59,3.78,3.44,4,5.8.09,3-5,15.27-13.24,27.45-13.3s24.35,8.11,27.47,13.3c2.36,3.93,3.2,3.69,5.79-.09C616.29,61.26,624.33,56.06,633.41,56.06Z"/></g></g></svg>