<svg xmlns="http://www.w3.org/2000/svg" viewBox="0 0 685.29 151.37"><defs><style>.cls-1{fill:#003a84;}.cls-2{fill:red;}</style></defs><title>Asset 4</title><g id="Layer_2" data-name="Layer 2"><g id="Layer_1-2" data-name="Layer 1"><path class="cls-1" d="M0,110.83c0-25.61,19.89-39.5,39.79-39.5,13.31,0,25.59,6.29,32.62,18.72l-12,7.46A23.89,23.89,0,0,0,39.93,86.1c-12.28,0-24,9.08-24,24.73s11.71,24.71,24,24.71a23.88,23.88,0,0,0,20.48-11.4l12,7.45a36.79,36.79,0,0,1-32.62,18.73C19.89,150.32,0,136.42,0,110.83Z"/><path class="cls-1" d="M79.59,110.83c0-25.61,20-39.5,39.79-39.5s39.79,13.89,39.79,39.5-20,39.49-39.79,39.49S79.59,136.42,79.59,110.83Zm63.49,0c0-15.65-11.27-24.73-23.7-24.73s-23.85,9.08-23.85,24.73,11.41,24.71,23.85,24.71S143.08,126.48,143.08,110.83Z"/><path class="cls-1" d="M162.11,74.25h16.53l23.11,56.61,23-56.61h16.67l-32.18,76.07H194.15Z"/><path class="cls-1" d="M319.23,117H259.55c2.48,13.16,12.87,19.89,25.89,19.89,8.19,0,15.51-2.63,21.06-7.9l7.61,7.9c-6.58,8.19-17.55,13.46-30.43,13.46-20.62,0-39.34-14.19-39.34-39.49,0-25.61,18.86-39.5,38.17-39.5S322.89,85.08,319.23,117ZM259.4,105h45.49c-.87-13.17-11.41-19.9-22.23-19.9S261.74,91.51,259.4,105Z"/><path class="cls-1" d="M377.17,73.37V88.74a23.57,23.57,0,0,0-4.67-.44c-14.49,0-24.29,10.53-24.29,26.47v35.55H332.12V74.25h16.09v19.6c2.63-11.4,10.24-21.06,24.14-21.06A17.4,17.4,0,0,1,377.17,73.37Z"/><path class="cls-1" d="M459.1,105.56v44.76H442.87V108.19c0-13.31-7.32-20.77-18.58-20.77-11,0-18.72,7.46-18.72,20.77v42.13H389.48V74.25h16.09V85.66c4.09-7,12.14-12.87,24.43-12.87C445.65,72.79,459.1,82.59,459.1,105.56Z"/><path class="cls-1" d="M471.56,110.83c0-25.61,20-39.5,39.78-39.5s39.79,13.89,39.79,39.5-20,39.49-39.79,39.49S471.56,136.42,471.56,110.83Zm63.48,0c0-15.65-11.26-24.73-23.7-24.73s-23.84,9.08-23.84,24.73,11.41,24.71,23.84,24.71S535,126.48,535,110.83Z"/><path class="cls-1" d="M684.88,117H625.2c2.49,13.17,12.87,19.89,25.89,19.89,8.19,0,15.5-2.63,21.06-7.9l7.6,7.9c-6.57,8.19-17.54,13.46-30.42,13.46-20.62,0-39.34-14.19-39.34-39.49,0-25.6,18.87-39.49,38.17-39.49S688.53,85.09,684.88,117Zm-59.82-12h45.48c-.87-13.17-11.41-19.89-22.23-19.89S627.4,91.52,625.06,105Z"/><path class="cls-1" d="M601,134.29c-1.69,2-8.65,3.86-12.4.16-3-3-3.11-11.41-3.11-12.51V66.84H570.92v55.1c-.54,9.09.67,18.94,11.15,25.94a26.74,26.74,0,0,0,11.69,3.48c7.75.31,14.26-4.35,15.14-5C605.17,141.62,604,141.48,601,134.29Z"/><path class="cls-2" d="M654.09,59.41C642.24,26.47,615,4.73,581.7,3.52V0h-7.26l0,3.52C541.18,4.7,513.88,26.45,502,59.41c-1.93,5.39-.58,8.32,1.21,6.21,5-5.86,11.85-9.56,19.47-9.56,9.08,0,17.12,5.19,22.09,13.2,2.59,3.78,3.44,4,5.8.09,3-5,15.27-13.24,27.45-13.3s24.34,8.11,27.47,13.3c2.36,3.93,3.2,3.69,5.79-.09,5-8,13-13.2,22.1-13.2,7.62,0,14.47,3.7,19.47,9.56C654.67,67.73,656,64.8,654.09,59.41Z"/><rect class="cls-1" x="584.21" y="92.61" width="13.79" height="10.31"/></g></g></svg>